<mxfile host="Electron" agent="Mozilla/5.0 (X11; Linux x86_64) AppleWebKit/537.36 (KHTML, like Gecko) draw.io/28.1.2 Chrome/138.0.7204.251 Electron/37.5.1 Safari/537.36" version="28.1.2">
  <diagram name="Page-1" id="jF3IgH2vE3yM_G-pw276">
    <mxGraphModel dx="639" dy="360" grid="1" gridSize="10" guides="1" tooltips="1" connect="1" arrows="1" fold="1" page="1" pageScale="1" pageWidth="850" pageHeight="1100" math="0" shadow="0">
      <root>
        <mxCell id="0" />
        <mxCell id="1" parent="0" />
        <mxCell id="3XUhOD0EnMwysCjsRWvy-7" style="edgeStyle=orthogonalEdgeStyle;rounded=0;orthogonalLoop=1;jettySize=auto;html=1;entryX=0.5;entryY=0;entryDx=0;entryDy=0;" edge="1" parent="1" source="3XUhOD0EnMwysCjsRWvy-1" target="3XUhOD0EnMwysCjsRWvy-3">
          <mxGeometry relative="1" as="geometry" />
        </mxCell>
        <mxCell id="3XUhOD0EnMwysCjsRWvy-1" value="START" style="strokeWidth=2;html=1;shape=mxgraph.flowchart.start_1;whiteSpace=wrap;" vertex="1" parent="1">
          <mxGeometry x="90" y="140" width="100" height="60" as="geometry" />
        </mxCell>
        <mxCell id="3XUhOD0EnMwysCjsRWvy-2" value="STOP" style="strokeWidth=2;html=1;shape=mxgraph.flowchart.start_1;whiteSpace=wrap;" vertex="1" parent="1">
          <mxGeometry x="480" y="300" width="100" height="60" as="geometry" />
        </mxCell>
        <mxCell id="3XUhOD0EnMwysCjsRWvy-9" style="edgeStyle=orthogonalEdgeStyle;rounded=0;orthogonalLoop=1;jettySize=auto;html=1;entryX=0.5;entryY=0;entryDx=0;entryDy=0;" edge="1" parent="1" source="3XUhOD0EnMwysCjsRWvy-3" target="3XUhOD0EnMwysCjsRWvy-4">
          <mxGeometry relative="1" as="geometry" />
        </mxCell>
        <mxCell id="3XUhOD0EnMwysCjsRWvy-3" value="&lt;p class=&quot;docData;DOCY;v5;981;BQiAAgAAEYQCAAAGiAIAAAM8AwAABUoDAAAAAAAAAAAAAAAAAAAAAAAAAAAAAAAAAAAAAAAAAAAAAAAAAAAAAAAAAAAAAAAAAAAAAAAAAAAAAAAAAAAAAAAAAAAAAAAAAAAAAAAAAAAAAAAAAAAAAAAAAAAAAAAAAAAAAAAAAAAAAAAAAAAAAAAAAAAAAAAAAAAAAAAAAAAAAAAAAAAAAAAAAAAAAAAAAAAAAAAAAAAAAAAAAAAAAAAAAAAAAAAAAAAAAAAAAAAAAAAAAAAAAAAAAAAAAAAAAAAAAAAAAAAAAAAAAAAAAAAAAAAAAAAAAAAAAAAAAAAAAAAAAAAAAAAAAAAAAAAAAAAAAAAAAAAAAAAAAAAAAAAAAAAAAAAAAAAAAAAAAAAAAAAAAAAAAAAAAAAAAAAAAAAAAAAAAAAAAAAAAAAAAAAAAAAAAAAAAAAAAAAAAAAAAAAAAAAAAAAAAAAAAAAAAAAAAAAAAAAAAAAAAAAAAAAAAAAAAAAAAAAAAAAAAAAAAAAAAAAAAAAAAAAAAAAAAAAAAAAAAAAAAAAAAAAAAAAAAAAAAAAAAAAAAAAAAAAAAAAAAAAAAAAAAAAAAAAAAAAAAAAAAAAAAAAAAAAAAAAAAAAAAAAAAAAAAAAAAAAAAAAAAAAAAAAAAAAAAAAAAAAAAAAAAAAAAAAAAAAAAAAAAAAAAAAAAAAAAAAAAAAAAAAAAAAAAAAAAAAAAAAAAAAAAAAAAAAAAAAAAAAAAAAAAAAAAAAAAAAAAAAAAAAAAAAAAAAAAAAAAAAAAAAAAAAAAAAAAAAAAAAAAAAAAAAAAAAAAAAAAAAAAAAAAAAAAAAAAAAAAAAAAAAAAAAAsAAAAACrAAAAASsAAAABBgAAAAAJBgAAAAAaBhMAAAAMAQAZBgoAAABoAHUALQBIAFUAGwYAAAAAAnYAAAAFQAAAAAETAAAADAEAGQYKAAAAaAB1AC0ASABVAAgjAAAAAB4AAABCAGkAbABsAGUAbgB0AHkAcQF6AGUAdAAgAGsAaQAFCgAAAAEAAAAACAAAAAAFHQAAAAETAAAADAEAGQYKAAAAaAB1AC0ASABVAAgAAAAACgAAAAAAAAAAEQAAAACHAAAAAC0AAAABBgAAAAAJBhsAAAAnBBQBAAALAQEcAQAoBAAAAAAdAQApBMgAAAAbBgAAAAABSwAAACgBBykBByoBBysBBRMBAQgEFgAAABYEFgAAABkGCgAAAGUAbgAtAFUAUwAaBgoAAABhAHIALQBTAEEAGwYKAAAAZQBuAC0AVQBTAAIAAAAA&quot; style=&quot;margin-top:0pt;margin-bottom:10pt;border:none;border-left:none;border-top:none;border-right:none;border-bottom:none;mso-border-between:none&quot;&gt;&lt;span style=&quot;font-family: Arial; font-size: 11pt;&quot;&gt;Billentyűzet ki&lt;/span&gt;&lt;/p&gt;" style="rounded=1;whiteSpace=wrap;html=1;absoluteArcSize=1;arcSize=14;strokeWidth=2;" vertex="1" parent="1">
          <mxGeometry x="90" y="240" width="100" height="40" as="geometry" />
        </mxCell>
        <mxCell id="3XUhOD0EnMwysCjsRWvy-4" value="&lt;p class=&quot;docData;DOCY;v5;989;BQiAAgAAEYQCAAAGiAIAAANEAwAABVIDAAAAAAAAAAAAAAAAAAAAAAAAAAAAAAAAAAAAAAAAAAAAAAAAAAAAAAAAAAAAAAAAAAAAAAAAAAAAAAAAAAAAAAAAAAAAAAAAAAAAAAAAAAAAAAAAAAAAAAAAAAAAAAAAAAAAAAAAAAAAAAAAAAAAAAAAAAAAAAAAAAAAAAAAAAAAAAAAAAAAAAAAAAAAAAAAAAAAAAAAAAAAAAAAAAAAAAAAAAAAAAAAAAAAAAAAAAAAAAAAAAAAAAAAAAAAAAAAAAAAAAAAAAAAAAAAAAAAAAAAAAAAAAAAAAAAAAAAAAAAAAAAAAAAAAAAAAAAAAAAAAAAAAAAAAAAAAAAAAAAAAAAAAAAAAAAAAAAAAAAAAAAAAAAAAAAAAAAAAAAAAAAAAAAAAAAAAAAAAAAAAAAAAAAAAAAAAAAAAAAAAAAAAAAAAAAAAAAAAAAAAAAAAAAAAAAAAAAAAAAAAAAAAAAAAAAAAAAAAAAAAAAAAAAAAAAAAAAAAAAAAAAAAAAAAAAAAAAAAAAAAAAAAAAAAAAAAAAAAAAAAAAAAAAAAAAAAAAAAAAAAAAAAAAAAAAAAAAAAAAAAAAAAAAAAAAAAAAAAAAAAAAAAAAAAAAAAAAAAAAAAAAAAAAAAAAAAAAAAAAAAAAAAAAAAAAAAAAAAAAAAAAAAAAAAAAAAAAAAAAAAAAAAAAAAAAAAAAAAAAAAAAAAAAAAAAAAAAAAAAAAAAAAAAAAAAAAAAAAAAAAAAAAAAAAAAAAAAAAAAAAAAAAAAAAAAAAAAAAAAAAAAAAAAAAAAAAAAAAAAAAAAAAAAAAAAAAAAAAAAAAAAAAAAAAAAuAAAAACzAAAAASsAAAABBgAAAAAJBgAAAAAaBhMAAAAMAQAZBgoAAABoAHUALQBIAFUAGwYAAAAAAn4AAAAFSAAAAAETAAAADAEAGQYKAAAAaAB1AC0ASABVAAgrAAAAACYAAABUAGUAbABlAGYAbwBuAHMAegDhAG0AbwB0ACAA7QByAHUAbgBrAAUKAAAAAQAAAAAIAAAAAAUdAAAAARMAAAAMAQAZBgoAAABoAHUALQBIAFUACAAAAAAKAAAAAAAAAAARAAAAAIcAAAAALQAAAAEGAAAAAAkGGwAAACcEFAEAAAsBARwBACgEAAAAAB0BACkEyAAAABsGAAAAAAFLAAAAKAEHKQEHKgEHKwEFEwEBCAQWAAAAFgQWAAAAGQYKAAAAZQBuAC0AVQBTABoGCgAAAGEAcgAtAFMAQQAbBgoAAABlAG4ALQBVAFMAAgAAAAA=&quot; style=&quot;margin-top:0pt;margin-bottom:10pt;border:none;border-left:none;border-top:none;border-right:none;border-bottom:none;mso-border-between:none&quot;&gt;&lt;span style=&quot;font-family: Arial;&quot;&gt;&lt;font style=&quot;font-size: 10px;&quot;&gt;Telefonszámot írunk&lt;/font&gt;&lt;/span&gt;&lt;/p&gt;" style="shape=parallelogram;html=1;strokeWidth=2;perimeter=parallelogramPerimeter;whiteSpace=wrap;rounded=1;arcSize=12;size=0.23;" vertex="1" parent="1">
          <mxGeometry x="60" y="320" width="160" height="40" as="geometry" />
        </mxCell>
        <mxCell id="3XUhOD0EnMwysCjsRWvy-11" style="edgeStyle=orthogonalEdgeStyle;rounded=0;orthogonalLoop=1;jettySize=auto;html=1;exitX=0;exitY=0.5;exitDx=0;exitDy=0;exitPerimeter=0;" edge="1" parent="1" source="3XUhOD0EnMwysCjsRWvy-10">
          <mxGeometry relative="1" as="geometry">
            <mxPoint x="140" y="290" as="targetPoint" />
            <mxPoint x="50" y="380" as="sourcePoint" />
            <Array as="points">
              <mxPoint x="50" y="430" />
              <mxPoint x="50" y="290" />
            </Array>
          </mxGeometry>
        </mxCell>
        <mxCell id="3XUhOD0EnMwysCjsRWvy-12" value="HAMIS" style="edgeLabel;html=1;align=center;verticalAlign=middle;resizable=0;points=[];" vertex="1" connectable="0" parent="3XUhOD0EnMwysCjsRWvy-11">
          <mxGeometry x="-0.8611" y="-2" relative="1" as="geometry">
            <mxPoint as="offset" />
          </mxGeometry>
        </mxCell>
        <mxCell id="3XUhOD0EnMwysCjsRWvy-16" style="edgeStyle=orthogonalEdgeStyle;rounded=0;orthogonalLoop=1;jettySize=auto;html=1;entryX=0.5;entryY=0;entryDx=0;entryDy=0;" edge="1" parent="1" source="3XUhOD0EnMwysCjsRWvy-10" target="3XUhOD0EnMwysCjsRWvy-14">
          <mxGeometry relative="1" as="geometry" />
        </mxCell>
        <mxCell id="3XUhOD0EnMwysCjsRWvy-22" value="IGAZ" style="edgeLabel;html=1;align=center;verticalAlign=middle;resizable=0;points=[];" vertex="1" connectable="0" parent="3XUhOD0EnMwysCjsRWvy-16">
          <mxGeometry x="-0.7712" y="-1" relative="1" as="geometry">
            <mxPoint as="offset" />
          </mxGeometry>
        </mxCell>
        <mxCell id="3XUhOD0EnMwysCjsRWvy-10" value="Beütöttem az összes számot" style="strokeWidth=2;html=1;shape=mxgraph.flowchart.decision;whiteSpace=wrap;" vertex="1" parent="1">
          <mxGeometry x="90" y="380" width="100" height="100" as="geometry" />
        </mxCell>
        <mxCell id="3XUhOD0EnMwysCjsRWvy-13" style="edgeStyle=orthogonalEdgeStyle;rounded=0;orthogonalLoop=1;jettySize=auto;html=1;entryX=0.5;entryY=0;entryDx=0;entryDy=0;entryPerimeter=0;" edge="1" parent="1" source="3XUhOD0EnMwysCjsRWvy-4" target="3XUhOD0EnMwysCjsRWvy-10">
          <mxGeometry relative="1" as="geometry" />
        </mxCell>
        <mxCell id="3XUhOD0EnMwysCjsRWvy-17" style="edgeStyle=orthogonalEdgeStyle;rounded=0;orthogonalLoop=1;jettySize=auto;html=1;entryX=0.5;entryY=0;entryDx=0;entryDy=0;" edge="1" parent="1" source="3XUhOD0EnMwysCjsRWvy-14" target="3XUhOD0EnMwysCjsRWvy-15">
          <mxGeometry relative="1" as="geometry" />
        </mxCell>
        <mxCell id="3XUhOD0EnMwysCjsRWvy-14" value="&lt;p class=&quot;docData;DOCY;v5;961;BQiAAgAAEYQCAAAGiAIAAAMoAwAABTYDAAAAAAAAAAAAAAAAAAAAAAAAAAAAAAAAAAAAAAAAAAAAAAAAAAAAAAAAAAAAAAAAAAAAAAAAAAAAAAAAAAAAAAAAAAAAAAAAAAAAAAAAAAAAAAAAAAAAAAAAAAAAAAAAAAAAAAAAAAAAAAAAAAAAAAAAAAAAAAAAAAAAAAAAAAAAAAAAAAAAAAAAAAAAAAAAAAAAAAAAAAAAAAAAAAAAAAAAAAAAAAAAAAAAAAAAAAAAAAAAAAAAAAAAAAAAAAAAAAAAAAAAAAAAAAAAAAAAAAAAAAAAAAAAAAAAAAAAAAAAAAAAAAAAAAAAAAAAAAAAAAAAAAAAAAAAAAAAAAAAAAAAAAAAAAAAAAAAAAAAAAAAAAAAAAAAAAAAAAAAAAAAAAAAAAAAAAAAAAAAAAAAAAAAAAAAAAAAAAAAAAAAAAAAAAAAAAAAAAAAAAAAAAAAAAAAAAAAAAAAAAAAAAAAAAAAAAAAAAAAAAAAAAAAAAAAAAAAAAAAAAAAAAAAAAAAAAAAAAAAAAAAAAAAAAAAAAAAAAAAAAAAAAAAAAAAAAAAAAAAAAAAAAAAAAAAAAAAAAAAAAAAAAAAAAAAAAAAAAAAAAAAAAAAAAAAAAAAAAAAAAAAAAAAAAAAAAAAAAAAAAAAAAAAAAAAAAAAAAAAAAAAAAAAAAAAAAAAAAAAAAAAAAAAAAAAAAAAAAAAAAAAAAAAAAAAAAAAAAAAAAAAAAAAAAAAAAAAAAAAAAAAAAAAAAAAAAAAAAAAAAAAAAAAAAAAAAAAAAAAAAAAAAAAAAAAAAAAAAAAAAAAAAAAAAAAAAAAAAAAAAAAAAAAAAAAnAAAAACXAAAAASsAAAABBgAAAAAJBgAAAAAaBhMAAAAMAQAZBgoAAABoAHUALQBIAFUAGwYAAAAAAmIAAAAFLAAAAAETAAAADAEAGQYKAAAAaAB1AC0ASABVAAgPAAAAAAoAAABIAO0AdgDhAHMABQoAAAABAAAAAAgAAAAABR0AAAABEwAAAAwBABkGCgAAAGgAdQAtAEgAVQAIAAAAAAoAAAAAAAAAABEAAAAAhwAAAAAtAAAAAQYAAAAACQYbAAAAJwQUAQAACwEBHAEAKAQAAAAAHQEAKQTIAAAAGwYAAAAAAUsAAAAoAQcpAQcqAQcrAQUTAQEIBBYAAAAWBBYAAAAZBgoAAABlAG4ALQBVAFMAGgYKAAAAYQByAC0AUwBBABsGCgAAAGUAbgAtAFUAUwACAAAAAA==&quot; style=&quot;margin-top:0pt;margin-bottom:10pt;border:none;border-left:none;border-top:none;border-right:none;border-bottom:none;mso-border-between:none&quot;&gt;&lt;span style=&quot;font-family: Arial; font-size: 11pt;&quot;&gt;Hívás&lt;/span&gt;&lt;/p&gt;" style="rounded=1;whiteSpace=wrap;html=1;absoluteArcSize=1;arcSize=14;strokeWidth=2;" vertex="1" parent="1">
          <mxGeometry x="310" y="150" width="100" height="40" as="geometry" />
        </mxCell>
        <mxCell id="3XUhOD0EnMwysCjsRWvy-15" value="&lt;p class=&quot;docData;DOCY;v5;961;BQiAAgAAEYQCAAAGiAIAAAMoAwAABTYDAAAAAAAAAAAAAAAAAAAAAAAAAAAAAAAAAAAAAAAAAAAAAAAAAAAAAAAAAAAAAAAAAAAAAAAAAAAAAAAAAAAAAAAAAAAAAAAAAAAAAAAAAAAAAAAAAAAAAAAAAAAAAAAAAAAAAAAAAAAAAAAAAAAAAAAAAAAAAAAAAAAAAAAAAAAAAAAAAAAAAAAAAAAAAAAAAAAAAAAAAAAAAAAAAAAAAAAAAAAAAAAAAAAAAAAAAAAAAAAAAAAAAAAAAAAAAAAAAAAAAAAAAAAAAAAAAAAAAAAAAAAAAAAAAAAAAAAAAAAAAAAAAAAAAAAAAAAAAAAAAAAAAAAAAAAAAAAAAAAAAAAAAAAAAAAAAAAAAAAAAAAAAAAAAAAAAAAAAAAAAAAAAAAAAAAAAAAAAAAAAAAAAAAAAAAAAAAAAAAAAAAAAAAAAAAAAAAAAAAAAAAAAAAAAAAAAAAAAAAAAAAAAAAAAAAAAAAAAAAAAAAAAAAAAAAAAAAAAAAAAAAAAAAAAAAAAAAAAAAAAAAAAAAAAAAAAAAAAAAAAAAAAAAAAAAAAAAAAAAAAAAAAAAAAAAAAAAAAAAAAAAAAAAAAAAAAAAAAAAAAAAAAAAAAAAAAAAAAAAAAAAAAAAAAAAAAAAAAAAAAAAAAAAAAAAAAAAAAAAAAAAAAAAAAAAAAAAAAAAAAAAAAAAAAAAAAAAAAAAAAAAAAAAAAAAAAAAAAAAAAAAAAAAAAAAAAAAAAAAAAAAAAAAAAAAAAAAAAAAAAAAAAAAAAAAAAAAAAAAAAAAAAAAAAAAAAAAAAAAAAAAAAAAAAAAAAAAAAAAAAAAAAAAAAAAAnAAAAACXAAAAASsAAAABBgAAAAAJBgAAAAAaBhMAAAAMAQAZBgoAAABoAHUALQBIAFUAGwYAAAAAAmIAAAAFLAAAAAETAAAADAEAGQYKAAAAaAB1AC0ASABVAAgPAAAAAAoAAABIAO0AdgDhAHMABQoAAAABAAAAAAgAAAAABR0AAAABEwAAAAwBABkGCgAAAGgAdQAtAEgAVQAIAAAAAAoAAAAAAAAAABEAAAAAhwAAAAAtAAAAAQYAAAAACQYbAAAAJwQUAQAACwEBHAEAKAQAAAAAHQEAKQTIAAAAGwYAAAAAAUsAAAAoAQcpAQcqAQcrAQUTAQEIBBYAAAAWBBYAAAAZBgoAAABlAG4ALQBVAFMAGgYKAAAAYQByAC0AUwBBABsGCgAAAGUAbgAtAFUAUwACAAAAAA==&quot; style=&quot;margin-top:0pt;margin-bottom:10pt;border:none;border-left:none;border-top:none;border-right:none;border-bottom:none;mso-border-between:none&quot;&gt;&lt;span class=&quot;docData;DOCY;v5;985;BQiAAgAAEYQCAAAGiAIAAANAAwAABU4DAAAAAAAAAAAAAAAAAAAAAAAAAAAAAAAAAAAAAAAAAAAAAAAAAAAAAAAAAAAAAAAAAAAAAAAAAAAAAAAAAAAAAAAAAAAAAAAAAAAAAAAAAAAAAAAAAAAAAAAAAAAAAAAAAAAAAAAAAAAAAAAAAAAAAAAAAAAAAAAAAAAAAAAAAAAAAAAAAAAAAAAAAAAAAAAAAAAAAAAAAAAAAAAAAAAAAAAAAAAAAAAAAAAAAAAAAAAAAAAAAAAAAAAAAAAAAAAAAAAAAAAAAAAAAAAAAAAAAAAAAAAAAAAAAAAAAAAAAAAAAAAAAAAAAAAAAAAAAAAAAAAAAAAAAAAAAAAAAAAAAAAAAAAAAAAAAAAAAAAAAAAAAAAAAAAAAAAAAAAAAAAAAAAAAAAAAAAAAAAAAAAAAAAAAAAAAAAAAAAAAAAAAAAAAAAAAAAAAAAAAAAAAAAAAAAAAAAAAAAAAAAAAAAAAAAAAAAAAAAAAAAAAAAAAAAAAAAAAAAAAAAAAAAAAAAAAAAAAAAAAAAAAAAAAAAAAAAAAAAAAAAAAAAAAAAAAAAAAAAAAAAAAAAAAAAAAAAAAAAAAAAAAAAAAAAAAAAAAAAAAAAAAAAAAAAAAAAAAAAAAAAAAAAAAAAAAAAAAAAAAAAAAAAAAAAAAAAAAAAAAAAAAAAAAAAAAAAAAAAAAAAAAAAAAAAAAAAAAAAAAAAAAAAAAAAAAAAAAAAAAAAAAAAAAAAAAAAAAAAAAAAAAAAAAAAAAAAAAAAAAAAAAAAAAAAAAAAAAAAAAAAAAAAAAAAAAAAAAAAAAAAAAAAAAAAAAAAAAAAAAAAAAAAAAAAAtAAAAACvAAAAARsAAAABBgAAAAAJBgAAAAAaBgMAAAAMAQAbBgAAAAACigAAAAU2AAAAARMAAAAMAQAZBgoAAABoAHUALQBIAFUACBkAAAAAFAAAAFYA4QByAGEAawBvAHoAdQBuAGsABQoAAAABAAAAAAgAAAAABR0AAAABEwAAAAwBABkGCgAAAGgAdQAtAEgAVQAIAAAAAAUKAAAAAQAAAAAIAAAAAAUKAAAACAUAAAANAAAAAAoAAAAAAAAAABEAAAAAhwAAAAAtAAAAAQYAAAAACQYbAAAAJwQUAQAACwEBHAEAKAQAAAAAHQEAKQTIAAAAGwYAAAAAAUsAAAAoAQcpAQcqAQcrAQUTAQEIBBYAAAAWBBYAAAAZBgoAAABlAG4ALQBVAFMAGgYKAAAAYQByAC0AUwBBABsGCgAAAGUAbgAtAFUAUwACAAAAAA==&quot; style=&quot;font-family: Arial; font-size: 11pt;&quot;&gt;Várakozunk&lt;/span&gt;&lt;/p&gt;" style="rounded=1;whiteSpace=wrap;html=1;absoluteArcSize=1;arcSize=14;strokeWidth=2;" vertex="1" parent="1">
          <mxGeometry x="310" y="210" width="100" height="40" as="geometry" />
        </mxCell>
        <mxCell id="3XUhOD0EnMwysCjsRWvy-20" style="edgeStyle=orthogonalEdgeStyle;rounded=0;orthogonalLoop=1;jettySize=auto;html=1;entryX=0.004;entryY=0.597;entryDx=0;entryDy=0;entryPerimeter=0;" edge="1" parent="1" source="3XUhOD0EnMwysCjsRWvy-18" target="3XUhOD0EnMwysCjsRWvy-15">
          <mxGeometry relative="1" as="geometry">
            <mxPoint x="300" y="250" as="targetPoint" />
            <Array as="points">
              <mxPoint x="260" y="320" />
              <mxPoint x="260" y="234" />
            </Array>
          </mxGeometry>
        </mxCell>
        <mxCell id="3XUhOD0EnMwysCjsRWvy-21" value="HAMIS" style="edgeLabel;html=1;align=center;verticalAlign=middle;resizable=0;points=[];" vertex="1" connectable="0" parent="3XUhOD0EnMwysCjsRWvy-20">
          <mxGeometry x="-0.6253" relative="1" as="geometry">
            <mxPoint as="offset" />
          </mxGeometry>
        </mxCell>
        <mxCell id="3XUhOD0EnMwysCjsRWvy-24" style="edgeStyle=orthogonalEdgeStyle;rounded=0;orthogonalLoop=1;jettySize=auto;html=1;exitX=0.5;exitY=1;exitDx=0;exitDy=0;exitPerimeter=0;entryX=0.5;entryY=0;entryDx=0;entryDy=0;" edge="1" parent="1" source="3XUhOD0EnMwysCjsRWvy-18" target="3XUhOD0EnMwysCjsRWvy-23">
          <mxGeometry relative="1" as="geometry" />
        </mxCell>
        <mxCell id="3XUhOD0EnMwysCjsRWvy-18" value="&lt;p class=&quot;docData;DOCY;v5;1040;BQiAAgAAEYQCAAAGiAIAAAN3AwAABYUDAAAAAAAAAAAAAAAAAAAAAAAAAAAAAAAAAAAAAAAAAAAAAAAAAAAAAAAAAAAAAAAAAAAAAAAAAAAAAAAAAAAAAAAAAAAAAAAAAAAAAAAAAAAAAAAAAAAAAAAAAAAAAAAAAAAAAAAAAAAAAAAAAAAAAAAAAAAAAAAAAAAAAAAAAAAAAAAAAAAAAAAAAAAAAAAAAAAAAAAAAAAAAAAAAAAAAAAAAAAAAAAAAAAAAAAAAAAAAAAAAAAAAAAAAAAAAAAAAAAAAAAAAAAAAAAAAAAAAAAAAAAAAAAAAAAAAAAAAAAAAAAAAAAAAAAAAAAAAAAAAAAAAAAAAAAAAAAAAAAAAAAAAAAAAAAAAAAAAAAAAAAAAAAAAAAAAAAAAAAAAAAAAAAAAAAAAAAAAAAAAAAAAAAAAAAAAAAAAAAAAAAAAAAAAAAAAAAAAAAAAAAAAAAAAAAAAAAAAAAAAAAAAAAAAAAAAAAAAAAAAAAAAAAAAAAAAAAAAAAAAAAAAAAAAAAAAAAAAAAAAAAAAAAAAAAAAAAAAAAAAAAAAAAAAAAAAAAAAAAAAAAAAAAAAAAAAAAAAAAAAAAAAAAAAAAAAAAAAAAAAAAAAAAAAAAAAAAAAAAAAAAAAAAAAAAAAAAAAAAAAAAAAAAAAAAAAAAAAAAAAAAAAAAAAAAAAAAAAAAAAAAAAAAAAAAAAAAAAAAAAAAAAAAAAAAAAAAAAAAAAAAAAAAAAAAAAAAAAAAAAAAAAAAAAAAAAAAAAAAAAAAAAAAAAAAAAAAAAAAAAAAAAAAAAAAAAAAAAAAAAAAAAAAAAAAAAAAAAAAAAAAAAAAAAAAA6wAAAADmAAAAATsAAAABBgAAAAAJBgAAAAAaBiMAAAAMAQAZBgoAAABoAHUALQBIAFUAGgYKAAAAaAB1AC0ASABVABsGAAAAAAKhAAAABUgAAAABIwAAAAwBABkGCgAAAGgAdQAtAEgAVQAaBgoAAABoAHUALQBIAFUACBsAAAAAFgAAAEYAZQBsAHYAZQBzAHoAaQBrAC0AZQAFHQAAAAETAAAADAEAGQYKAAAAaAB1AC0ASABVAAgAAAAABS0AAAABIwAAAAwBABkGCgAAAGgAdQAtAEgAVQAaBgoAAABoAHUALQBIAFUACAAAAAAKAAAAAAAAAAARAAAAAIcAAAAALQAAAAEGAAAAAAkGGwAAACcEFAEAAAsBARwBACgEAAAAAB0BACkEyAAAABsGAAAAAAFLAAAAKAEHKQEHKgEHKwEFEwEBCAQWAAAAFgQWAAAAGQYKAAAAZQBuAC0AVQBTABoGCgAAAGEAcgAtAFMAQQAbBgoAAABlAG4ALQBVAFMAAgAAAAA=&quot; style=&quot;margin-top:0pt;margin-bottom:10pt;border:none;border-left:none;border-top:none;border-right:none;border-bottom:none;mso-border-between:none&quot;&gt;&lt;span style=&quot;font-family:&#39;Arial&#39;;font-size:11pt;color:#000000;mso-style-textfill-fill-color:#000000&quot;&gt;Felveszik-e&lt;/span&gt;&lt;/p&gt;" style="strokeWidth=2;html=1;shape=mxgraph.flowchart.decision;whiteSpace=wrap;" vertex="1" parent="1">
          <mxGeometry x="310" y="270" width="100" height="100" as="geometry" />
        </mxCell>
        <mxCell id="3XUhOD0EnMwysCjsRWvy-19" style="edgeStyle=orthogonalEdgeStyle;rounded=0;orthogonalLoop=1;jettySize=auto;html=1;exitX=0.5;exitY=1;exitDx=0;exitDy=0;entryX=0.5;entryY=0;entryDx=0;entryDy=0;entryPerimeter=0;" edge="1" parent="1" source="3XUhOD0EnMwysCjsRWvy-15" target="3XUhOD0EnMwysCjsRWvy-18">
          <mxGeometry relative="1" as="geometry" />
        </mxCell>
        <mxCell id="3XUhOD0EnMwysCjsRWvy-26" style="edgeStyle=orthogonalEdgeStyle;rounded=0;orthogonalLoop=1;jettySize=auto;html=1;exitX=0.5;exitY=1;exitDx=0;exitDy=0;entryX=0.5;entryY=0;entryDx=0;entryDy=0;" edge="1" parent="1" source="3XUhOD0EnMwysCjsRWvy-23" target="3XUhOD0EnMwysCjsRWvy-25">
          <mxGeometry relative="1" as="geometry" />
        </mxCell>
        <mxCell id="3XUhOD0EnMwysCjsRWvy-23" value="&lt;span class=&quot;docData;DOCY;v5;1016;BQiAAgAAEYQCAAAGiAIAAANfAwAABW0DAAAAAAAAAAAAAAAAAAAAAAAAAAAAAAAAAAAAAAAAAAAAAAAAAAAAAAAAAAAAAAAAAAAAAAAAAAAAAAAAAAAAAAAAAAAAAAAAAAAAAAAAAAAAAAAAAAAAAAAAAAAAAAAAAAAAAAAAAAAAAAAAAAAAAAAAAAAAAAAAAAAAAAAAAAAAAAAAAAAAAAAAAAAAAAAAAAAAAAAAAAAAAAAAAAAAAAAAAAAAAAAAAAAAAAAAAAAAAAAAAAAAAAAAAAAAAAAAAAAAAAAAAAAAAAAAAAAAAAAAAAAAAAAAAAAAAAAAAAAAAAAAAAAAAAAAAAAAAAAAAAAAAAAAAAAAAAAAAAAAAAAAAAAAAAAAAAAAAAAAAAAAAAAAAAAAAAAAAAAAAAAAAAAAAAAAAAAAAAAAAAAAAAAAAAAAAAAAAAAAAAAAAAAAAAAAAAAAAAAAAAAAAAAAAAAAAAAAAAAAAAAAAAAAAAAAAAAAAAAAAAAAAAAAAAAAAAAAAAAAAAAAAAAAAAAAAAAAAAAAAAAAAAAAAAAAAAAAAAAAAAAAAAAAAAAAAAAAAAAAAAAAAAAAAAAAAAAAAAAAAAAAAAAAAAAAAAAAAAAAAAAAAAAAAAAAAAAAAAAAAAAAAAAAAAAAAAAAAAAAAAAAAAAAAAAAAAAAAAAAAAAAAAAAAAAAAAAAAAAAAAAAAAAAAAAAAAAAAAAAAAAAAAAAAAAAAAAAAAAAAAAAAAAAAAAAAAAAAAAAAAAAAAAAAAAAAAAAAAAAAAAAAAAAAAAAAAAAAAAAAAAAAAAAAAAAAAAAAAAAAAAAAAAAAAAAAAAAAAAAAAAAAAAAAAAA0wAAAADOAAAAATsAAAABBgAAAAAJBgAAAAAaBiMAAAAMAQAZBgoAAABoAHUALQBIAFUAGgYKAAAAaAB1AC0ASABVABsGAAAAAAKJAAAABUQAAAABIwAAAAwBABkGCgAAAGgAdQAtAEgAVQAaBgoAAABoAHUALQBIAFUACBcAAAAAEgAAAEIAZQBzAHoA6QBsAPwAbgBrAAUdAAAAARMAAAAMAQAZBgoAAABoAHUALQBIAFUACAAAAAAFCgAAAAEAAAAACAAAAAAFCgAAAAgFAAAADQAAAAAKAAAAAAAAAAARAAAAAIcAAAAALQAAAAEGAAAAAAkGGwAAACcEFAEAAAsBARwBACgEAAAAAB0BACkEyAAAABsGAAAAAAFLAAAAKAEHKQEHKgEHKwEFEwEBCAQWAAAAFgQWAAAAGQYKAAAAZQBuAC0AVQBTABoGCgAAAGEAcgAtAFMAQQAbBgoAAABlAG4ALQBVAFMAAgAAAAA=&quot; style=&quot;font-family: Arial; font-size: 11pt;&quot;&gt;Beszélünk. Befejeztem&lt;/span&gt;" style="rounded=1;whiteSpace=wrap;html=1;absoluteArcSize=1;arcSize=14;strokeWidth=2;" vertex="1" parent="1">
          <mxGeometry x="480" y="170" width="100" height="40" as="geometry" />
        </mxCell>
        <mxCell id="3XUhOD0EnMwysCjsRWvy-25" value="&lt;span class=&quot;docData;DOCY;v5;1016;BQiAAgAAEYQCAAAGiAIAAANfAwAABW0DAAAAAAAAAAAAAAAAAAAAAAAAAAAAAAAAAAAAAAAAAAAAAAAAAAAAAAAAAAAAAAAAAAAAAAAAAAAAAAAAAAAAAAAAAAAAAAAAAAAAAAAAAAAAAAAAAAAAAAAAAAAAAAAAAAAAAAAAAAAAAAAAAAAAAAAAAAAAAAAAAAAAAAAAAAAAAAAAAAAAAAAAAAAAAAAAAAAAAAAAAAAAAAAAAAAAAAAAAAAAAAAAAAAAAAAAAAAAAAAAAAAAAAAAAAAAAAAAAAAAAAAAAAAAAAAAAAAAAAAAAAAAAAAAAAAAAAAAAAAAAAAAAAAAAAAAAAAAAAAAAAAAAAAAAAAAAAAAAAAAAAAAAAAAAAAAAAAAAAAAAAAAAAAAAAAAAAAAAAAAAAAAAAAAAAAAAAAAAAAAAAAAAAAAAAAAAAAAAAAAAAAAAAAAAAAAAAAAAAAAAAAAAAAAAAAAAAAAAAAAAAAAAAAAAAAAAAAAAAAAAAAAAAAAAAAAAAAAAAAAAAAAAAAAAAAAAAAAAAAAAAAAAAAAAAAAAAAAAAAAAAAAAAAAAAAAAAAAAAAAAAAAAAAAAAAAAAAAAAAAAAAAAAAAAAAAAAAAAAAAAAAAAAAAAAAAAAAAAAAAAAAAAAAAAAAAAAAAAAAAAAAAAAAAAAAAAAAAAAAAAAAAAAAAAAAAAAAAAAAAAAAAAAAAAAAAAAAAAAAAAAAAAAAAAAAAAAAAAAAAAAAAAAAAAAAAAAAAAAAAAAAAAAAAAAAAAAAAAAAAAAAAAAAAAAAAAAAAAAAAAAAAAAAAAAAAAAAAAAAAAAAAAAAAAAAAAAAAAAAAAAAAAAAAAAAA0wAAAADOAAAAATsAAAABBgAAAAAJBgAAAAAaBiMAAAAMAQAZBgoAAABoAHUALQBIAFUAGgYKAAAAaAB1AC0ASABVABsGAAAAAAKJAAAABUQAAAABIwAAAAwBABkGCgAAAGgAdQAtAEgAVQAaBgoAAABoAHUALQBIAFUACBcAAAAAEgAAAEIAZQBzAHoA6QBsAPwAbgBrAAUdAAAAARMAAAAMAQAZBgoAAABoAHUALQBIAFUACAAAAAAFCgAAAAEAAAAACAAAAAAFCgAAAAgFAAAADQAAAAAKAAAAAAAAAAARAAAAAIcAAAAALQAAAAEGAAAAAAkGGwAAACcEFAEAAAsBARwBACgEAAAAAB0BACkEyAAAABsGAAAAAAFLAAAAKAEHKQEHKgEHKwEFEwEBCAQWAAAAFgQWAAAAGQYKAAAAZQBuAC0AVQBTABoGCgAAAGEAcgAtAFMAQQAbBgoAAABlAG4ALQBVAFMAAgAAAAA=&quot; style=&quot;font-family: Arial; font-size: 11pt;&quot;&gt;Lezárjuk a telefont&lt;/span&gt;" style="rounded=1;whiteSpace=wrap;html=1;absoluteArcSize=1;arcSize=14;strokeWidth=2;" vertex="1" parent="1">
          <mxGeometry x="480" y="230" width="100" height="40" as="geometry" />
        </mxCell>
        <mxCell id="3XUhOD0EnMwysCjsRWvy-27" style="edgeStyle=orthogonalEdgeStyle;rounded=0;orthogonalLoop=1;jettySize=auto;html=1;exitX=0.5;exitY=1;exitDx=0;exitDy=0;entryX=0.5;entryY=0;entryDx=0;entryDy=0;entryPerimeter=0;" edge="1" parent="1" source="3XUhOD0EnMwysCjsRWvy-25" target="3XUhOD0EnMwysCjsRWvy-2">
          <mxGeometry relative="1" as="geometry" />
        </mxCell>
      </root>
    </mxGraphModel>
  </diagram>
</mxfile>
